<svg xmlns="http://www.w3.org/2000/svg" xmlns:xlink="http://www.w3.org/1999/xlink" width="500" zoomAndPan="magnify" viewBox="0 0 375 374.999991" height="500" preserveAspectRatio="xMidYMid meet" version="1.0"><defs><clipPath id="055b843be2"><path d="M 17.492188 93.144531 L 357.242188 93.144531 L 357.242188 282.144531 L 17.492188 282.144531 Z M 17.492188 93.144531 " clip-rule="nonzero"/></clipPath><clipPath id="df32cecb5d"><path d="M 303.300781 284.027344 L 304.75 284.027344 L 304.75 285.25 L 303.300781 285.25 Z M 303.300781 284.027344 " clip-rule="nonzero"/></clipPath><clipPath id="a499a8906c"><path d="M 304.726562 284.476562 C 304.125 285.449219 303.523438 285.300781 303.375 285.074219 C 303.226562 284.851562 303.375 284.25 303.523438 284.101562 C 303.75 283.949219 304.574219 284.175781 304.574219 284.175781 " clip-rule="nonzero"/></clipPath><clipPath id="990d763ff9"><path d="M 301.828125 264 L 319.960938 264 L 319.960938 315.652344 L 301.828125 315.652344 Z M 301.828125 264 " clip-rule="nonzero"/></clipPath><clipPath id="db84668358"><path d="M 304.800781 284.699219 C 305.773438 309.300781 307.5 311.773438 308.550781 312.898438 C 309 313.425781 309.375 313.726562 309.898438 313.726562 C 310.425781 313.726562 311.023438 313.125 311.550781 312.449219 C 312.375 311.398438 312.824219 309.675781 313.5 307.351562 C 314.699219 303 316.351562 294.226562 317.101562 288.074219 C 317.851562 282.523438 318.300781 275.773438 318.300781 272.101562 C 318.226562 270.226562 318.226562 268.949219 317.851562 267.824219 C 317.550781 267 317.175781 266.324219 316.648438 265.875 C 316.199219 265.574219 315.601562 265.425781 315.074219 265.5 C 314.398438 265.574219 313.648438 266.023438 312.898438 266.773438 C 311.398438 268.273438 309.074219 272.550781 308.023438 275.25 C 307.199219 277.351562 306.898438 279 306.523438 281.398438 C 306.074219 284.550781 305.550781 289.726562 305.699219 292.425781 C 305.773438 294.148438 306 295.273438 306.449219 296.476562 C 306.824219 297.375 307.273438 298.273438 308.023438 298.875 C 309 299.625 311.023438 300.675781 312.148438 300.226562 C 313.574219 299.773438 314.476562 296.925781 315.300781 294.976562 C 316.199219 293.023438 316.726562 291.074219 317.25 288.601562 C 317.851562 285.449219 318.449219 280.125 318.375 277.574219 C 318.300781 276.226562 318.226562 275.175781 317.773438 274.5 C 317.550781 274.050781 317.101562 273.675781 316.648438 273.75 C 315.898438 273.75 314.773438 275.101562 313.800781 276.148438 C 312.523438 277.648438 311.324219 279.601562 310.125 282.226562 C 308.175781 286.199219 305.476562 293.25 304.425781 298.199219 C 303.523438 302.175781 303 306.898438 303.449219 309.375 C 303.75 310.726562 304.273438 311.550781 304.949219 312.300781 C 305.550781 312.976562 306.449219 313.5 307.273438 313.800781 C 308.023438 314.023438 309 314.25 309.898438 314.101562 C 310.726562 313.875 311.699219 313.351562 312.449219 312.675781 C 313.351562 311.699219 313.949219 310.199219 314.550781 308.699219 C 315.148438 306.898438 315.601562 305.023438 315.898438 302.550781 C 316.351562 298.800781 315.675781 289.949219 316.425781 288.226562 C 316.648438 287.699219 316.949219 287.476562 317.25 287.476562 C 317.476562 287.476562 318 288 317.925781 288.300781 C 317.925781 288.523438 317.324219 288.976562 317.101562 288.976562 C 316.800781 288.898438 316.351562 288.226562 316.425781 288.074219 C 316.574219 287.851562 317.550781 287.625 317.925781 287.925781 C 318.75 288.75 318.300781 293.398438 318.074219 296.550781 C 317.773438 300.449219 316.949219 306.300781 315.824219 309.375 C 315.148438 311.324219 314.324219 312.824219 313.273438 313.875 C 312.300781 314.773438 311.023438 315.375 309.824219 315.523438 C 308.699219 315.675781 307.5 315.449219 306.449219 315 C 305.398438 314.625 304.425781 313.875 303.675781 312.976562 C 302.925781 312.074219 302.324219 311.023438 302.023438 309.523438 C 301.5 306.75 302.101562 301.949219 303 297.75 C 304.050781 292.726562 306.824219 285.523438 308.851562 281.398438 C 310.125 278.699219 311.398438 276.601562 312.898438 275.023438 C 313.949219 273.824219 315.300781 272.550781 316.351562 272.476562 C 317.324219 272.398438 318.449219 273.074219 319.050781 273.898438 C 319.726562 274.726562 319.800781 276 319.875 277.574219 C 320.023438 280.351562 319.351562 285.75 318.675781 289.050781 C 318.148438 291.601562 317.625 293.699219 316.574219 295.800781 C 315.601562 297.824219 314.25 300.675781 312.75 301.425781 C 311.773438 301.949219 310.5 301.726562 309.449219 301.425781 C 308.476562 301.199219 307.574219 300.523438 306.824219 299.773438 C 306.074219 298.949219 305.476562 297.898438 305.023438 296.773438 C 304.5 295.5 304.273438 294.226562 304.199219 292.425781 C 304.050781 289.574219 304.574219 284.25 305.101562 281.023438 C 305.476562 278.550781 306 276.601562 306.675781 274.574219 C 307.351562 272.699219 308.175781 270.824219 309.148438 269.25 C 310.050781 267.824219 311.023438 266.398438 312.148438 265.5 C 313.050781 264.75 314.175781 264.148438 315.148438 264.074219 C 316.050781 264 317.101562 264.375 317.773438 264.976562 C 318.449219 265.574219 318.976562 266.550781 319.351562 267.601562 C 319.726562 268.875 319.726562 270.226562 319.800781 272.175781 C 319.800781 275.925781 319.351562 282.675781 318.601562 288.300781 C 317.773438 294.523438 316.273438 303.375 314.851562 307.949219 C 314.101562 310.425781 313.5 312.375 312.449219 313.574219 C 311.773438 314.398438 310.800781 315 309.898438 315 C 309.074219 315.074219 308.175781 314.625 307.351562 313.800781 C 306 312.523438 304.351562 309.675781 303.523438 306.449219 C 302.175781 301.199219 302.25 286.949219 303.300781 284.699219 C 303.523438 284.175781 303.824219 283.949219 304.125 283.949219 C 304.351562 283.949219 304.800781 284.699219 304.800781 284.699219 " clip-rule="nonzero"/></clipPath></defs><rect x="-37.5" width="450" fill="#ffffff" y="-37.499999" height="449.999989" fill-opacity="1"/><rect x="-37.5" width="450" fill="#ffffff" y="-37.499999" height="449.999989" fill-opacity="1"/><g clip-path="url(#055b843be2)"><path fill="#00b9f5" d="M 18.167969 178.140625 L 17.660156 282.144531 C 34.914062 282.144531 52.175781 282.144531 69.433594 282.144531 C 84.003906 261.773438 98.578125 241.390625 113.136719 221.011719 C 112.308594 241.390625 111.492188 261.765625 110.667969 282.144531 C 128.292969 282.144531 145.914062 282.144531 163.535156 282.144531 C 191.492188 174.777344 255.046875 110.628906 357.066406 93.144531 C 273.855469 101.195312 193.378906 118.542969 147.445312 252.464844 C 147.421875 227.691406 147.40625 202.914062 147.382812 178.140625 C 135.101562 178.140625 122.816406 178.140625 110.535156 178.140625 C 91.890625 203.355469 73.238281 228.570312 54.59375 253.78125 C 56.132812 228.5625 57.65625 203.347656 59.199219 178.140625 C 45.519531 178.140625 31.847656 178.140625 18.167969 178.140625 Z M 18.167969 178.140625 " fill-opacity="1" fill-rule="evenodd"/></g><g clip-path="url(#df32cecb5d)"><g clip-path="url(#a499a8906c)"><path fill="#ffffff" d="M 300.375 281.101562 L 307.792969 281.101562 L 307.792969 288.375 L 300.375 288.375 Z M 300.375 281.101562 " fill-opacity="1" fill-rule="nonzero"/><path fill="#ffffff" d="M 300.375 281.101562 L 307.792969 281.101562 L 307.792969 288.375 L 300.375 288.375 Z M 300.375 281.101562 " fill-opacity="1" fill-rule="nonzero"/><path fill="#ffffff" d="M 300.375 281.101562 L 307.792969 281.101562 L 307.792969 288.375 L 300.375 288.375 Z M 300.375 281.101562 " fill-opacity="1" fill-rule="nonzero"/></g></g><g clip-path="url(#990d763ff9)"><g clip-path="url(#db84668358)"><path fill="#ffffff" d="M 299.023438 261.074219 L 322.949219 261.074219 L 322.949219 318.550781 L 299.023438 318.550781 Z M 299.023438 261.074219 " fill-opacity="1" fill-rule="nonzero"/></g></g></svg>